<svg width="512" height="512" viewBox="0 0 512 512" fill="none" xmlns="http://www.w3.org/2000/svg">
<g filter="url(#filter0_d_4_2)">
<rect x="24" y="24" width="464" height="464" rx="116" fill="url(#paint0_linear_4_2)"/>
</g>
<g filter="url(#filter1_d_4_2)">
<path d="M407.974 250.826C406.658 248.508 404.894 246.476 402.786 244.849C400.679 243.222 398.269 242.033 395.697 241.35C386.368 238.942 376.727 237.974 367.107 238.479C372.265 212.817 368.396 192.519 364.45 180.483C362.877 175.539 359.524 171.359 355.044 168.758C350.564 166.158 345.279 165.323 340.219 166.417C327.096 169.347 314.619 174.657 303.401 182.086C295.186 165.262 283.225 150.554 268.441 139.099C264.858 136.405 260.5 134.949 256.022 134.949C251.543 134.949 247.186 136.405 243.603 139.099C228.816 150.551 216.854 165.259 208.642 182.086C197.425 174.657 184.947 169.347 171.825 166.417C166.764 165.323 161.479 166.158 156.999 168.758C152.52 171.359 149.166 175.539 147.593 180.483C143.725 192.519 139.856 212.804 144.937 238.479C135.317 237.974 125.676 238.942 116.347 241.35C113.775 242.033 111.365 243.222 109.257 244.849C107.149 246.476 105.386 248.508 104.07 250.826C102.693 253.2 101.801 255.826 101.447 258.55C101.092 261.273 101.283 264.04 102.007 266.689C106.378 282.94 119.803 313.852 160.463 338.209C201.124 362.566 236.846 362.488 256.086 362.488C275.327 362.488 311.113 362.488 351.516 338.209C392.176 313.852 405.601 282.94 409.973 266.689C410.706 264.044 410.907 261.28 410.564 258.556C410.221 255.833 409.34 253.205 407.974 250.826ZM167.221 186.844C167.236 186.779 167.276 186.724 167.331 186.688C167.386 186.652 167.453 186.638 167.518 186.65C179.517 189.367 190.841 194.5 200.802 201.737C196.266 216.612 194.014 232.092 194.122 247.646C194.122 271.873 198.983 291.602 205.87 307.478C196.08 297.655 187.609 286.594 180.671 274.575C157.433 234.006 162.269 202.177 167.221 186.844ZM171.09 320.458C136.696 299.876 125.541 274.64 121.905 261.259C131.394 258.917 141.24 258.404 150.921 259.747C154.152 268.425 158.099 276.819 162.72 284.841C174.067 304.452 188.932 321.791 206.566 335.985C194.097 332.391 182.152 327.171 171.038 320.458H171.09ZM256.022 339.734C243.99 330.762 214.755 303.238 214.755 247.646C214.755 192.739 243.616 164.995 256.022 155.635C268.428 165.021 297.289 192.765 297.289 247.672C297.289 303.238 268.054 330.762 256.022 339.734ZM311.242 201.737C321.204 194.505 332.528 189.376 344.526 186.663C344.591 186.651 344.658 186.664 344.713 186.701C344.768 186.737 344.807 186.792 344.823 186.857C349.775 202.177 354.611 234.006 331.372 274.575C324.441 286.61 315.969 297.684 306.174 307.517C313.06 291.667 317.922 271.912 317.922 247.684C318.034 232.118 315.781 216.624 311.242 201.737ZM390.139 261.285C386.567 274.537 375.438 299.825 341.018 320.458C329.904 327.166 317.959 332.382 305.49 335.972C323.125 321.779 337.99 304.439 349.336 284.828C353.957 276.806 357.904 268.412 361.136 259.734C370.813 258.397 380.656 258.919 390.139 261.272V261.285Z" fill="white"/>
</g>
<defs>
<filter id="filter0_d_4_2" x="14" y="22" width="484" height="484" filterUnits="userSpaceOnUse" color-interpolation-filters="sRGB">
<feFlood flood-opacity="0" result="BackgroundImageFix"/>
<feColorMatrix in="SourceAlpha" type="matrix" values="0 0 0 0 0 0 0 0 0 0 0 0 0 0 0 0 0 0 127 0" result="hardAlpha"/>
<feOffset dy="8"/>
<feGaussianBlur stdDeviation="5"/>
<feComposite in2="hardAlpha" operator="out"/>
<feColorMatrix type="matrix" values="0 0 0 0 0 0 0 0 0 0 0 0 0 0 0 0 0 0 0.1 0"/>
<feBlend mode="normal" in2="BackgroundImageFix" result="effect1_dropShadow_4_2"/>
<feBlend mode="normal" in="SourceGraphic" in2="effect1_dropShadow_4_2" result="shape"/>
</filter>
<filter id="filter1_d_4_2" x="101.273" y="134.949" width="309.453" height="243.539" filterUnits="userSpaceOnUse" color-interpolation-filters="sRGB">
<feFlood flood-opacity="0" result="BackgroundImageFix"/>
<feColorMatrix in="SourceAlpha" type="matrix" values="0 0 0 0 0 0 0 0 0 0 0 0 0 0 0 0 0 0 127 0" result="hardAlpha"/>
<feOffset dy="16"/>
<feComposite in2="hardAlpha" operator="out"/>
<feColorMatrix type="matrix" values="0 0 0 0 0 0 0 0 0 0 0 0 0 0 0 0 0 0 0.1 0"/>
<feBlend mode="normal" in2="BackgroundImageFix" result="effect1_dropShadow_4_2"/>
<feBlend mode="normal" in="SourceGraphic" in2="effect1_dropShadow_4_2" result="shape"/>
</filter>
<linearGradient id="paint0_linear_4_2" x1="421.629" y1="24" x2="256" y2="488" gradientUnits="userSpaceOnUse">
<stop stop-color="#3CB371"/>
<stop offset="1" stop-color="#389963"/>
</linearGradient>
</defs>
</svg>
